<?xml version="1.0" standalone="no"?>
<!DOCTYPE svg PUBLIC "-//W3C//DTD SVG 20010904//EN"
 "http://www.w3.org/TR/2001/REC-SVG-20010904/DTD/svg10.dtd">
<svg version="1.0" xmlns="http://www.w3.org/2000/svg"
 width="300.000000pt" height="300.000000pt" viewBox="0 0 300.000000 300.000000"
 preserveAspectRatio="xMidYMid meet">
<metadata>
Created by potrace 1.10, written by Peter Selinger 2001-2011
</metadata>
<g transform="translate(0.000000,300.000000) scale(0.100000,-0.100000)"
fill="current" stroke="current">
<path d="M1390 2979 c-348 -24 -665 -167 -922 -417 -321 -312 -476 -717 -446
-1170 42 -657 531 -1213 1183 -1347 169 -35 421 -35 590 0 652 134 1141 690
1183 1348 31 474 -141 897 -495 1218 -226 205 -556 347 -847 365 -45 3 -94 6
-111 7 -16 2 -77 0 -135 -4z m341 -165 c269 -46 509 -172 710 -373 261 -261
389 -571 389 -941 0 -370 -128 -680 -389 -941 -261 -261 -571 -389 -941 -389
-370 0 -680 128 -941 389 -261 261 -389 571 -389 941 0 283 73 521 232 758 66
99 241 274 340 340 159 107 349 185 523 216 112 20 349 20 466 0z"/>
<path d="M446 2000 c-40 -13 -74 -47 -86 -89 -5 -20 -10 -93 -10 -163 l0 -127
-30 -23 c-24 -17 -30 -29 -30 -58 0 -29 5 -39 25 -48 31 -14 34 -28 37 -197 4
-201 23 -224 183 -233 l95 -5 0 52 0 51 -43 0 c-24 0 -48 5 -55 12 -8 8 -12
51 -12 129 0 144 -6 173 -40 207 l-27 27 27 27 c33 33 40 69 40 221 0 117 0
118 26 127 14 6 39 10 55 10 28 0 29 2 29 45 l0 45 -77 -1 c-43 0 -91 -5 -107
-9z"/>
<path d="M2360 1963 c0 -46 1 -48 28 -49 16 -1 41 -4 55 -8 l27 -6 0 -118 c1
-139 10 -185 44 -221 l26 -28 -21 -19 c-37 -33 -42 -56 -48 -204 l-6 -145 -52
-9 -53 -10 0 -44 0 -44 93 4 c165 8 187 37 187 249 l0 131 30 28 c21 20 30 37
30 60 0 23 -9 40 -30 60 l-30 28 0 139 c-1 217 -29 253 -200 253 l-80 0 0 -47z"/>
<path d="M1710 1946 c-177 -47 -254 -242 -147 -371 37 -46 101 -75 227 -104
119 -28 130 -34 130 -72 0 -22 -6 -32 -26 -39 -63 -24 -150 -2 -180 47 -10 15
-19 30 -21 32 -1 2 -50 -4 -108 -14 -120 -21 -121 -22 -75 -102 52 -91 140
-140 267 -149 227 -17 382 88 383 259 0 65 -21 116 -67 159 -37 36 -82 53
-211 84 -117 28 -132 35 -132 70 0 33 33 47 93 41 41 -3 56 -11 79 -36 15 -17
33 -31 39 -31 22 0 179 51 179 59 0 4 -13 27 -28 52 -35 55 -96 98 -164 116
-64 16 -177 16 -238 -1z"/>
<path d="M880 1565 l0 -385 290 0 290 0 0 95 0 95 -170 0 -170 0 0 60 0 60
135 0 135 0 0 85 0 85 -135 0 -135 0 0 55 0 55 170 0 170 0 0 90 0 90 -290 0
-290 0 0 -385z"/>
</g>
</svg>
